<svg width="57" height="58" viewBox="0 0 57 58" fill="none" xmlns="http://www.w3.org/2000/svg">
<path d="M55.7971 26.83C39.1412 21.545 32.6871 9.57503 30.1887 1.42003C29.6682 -0.224971 27.3433 -0.224971 26.8228 1.42003C21.8607 17.52 9.95868 24.17 1.80422 26.865C0.173333 27.39 0.208032 29.735 1.83892 30.225C17.0721 34.845 23.8386 47.9 26.684 56.405C27.2392 58.085 29.5641 57.98 30.0499 56.3C34.6302 39.255 47.2957 32.71 55.7277 30.225C57.3933 29.735 57.428 27.355 55.7971 26.83ZM38.1002 29.35C35.1854 30.225 30.8133 32.465 29.2171 38.38C29.0436 38.975 28.2455 39.01 28.072 38.415C27.1004 35.475 24.7755 30.96 19.5011 29.35C18.9459 29.175 18.9112 28.37 19.5011 28.195C22.3118 27.25 26.4411 24.975 28.1414 19.41C28.3149 18.85 29.113 18.85 29.2865 19.41C30.154 22.21 32.3748 26.375 38.1349 28.195C38.6901 28.37 38.6901 29.175 38.1002 29.35Z" fill="url(#paint0_linear_257_125)"/>
<defs>
<linearGradient id="paint0_linear_257_125" x1="0.613812" y1="28.895" x2="57.0027" y2="28.895" gradientUnits="userSpaceOnUse">
<stop stop-color="#5931BA"/>
<stop offset="1" stop-color="#597EBA"/>
</linearGradient>
</defs>
</svg>
